#!OML:ASF F:\VICON\USERDATA\INSTALL\rory3\rory3.ASF
:FULLY-SPECIFIED
:DEGREES
36
root 0.3992030214202956 18.419416284770758 -0.6296185825151506 4.089398230151379 -5.314434155091985 0.8941732946672438
lfemur 8.102067178839551 -2.053454500797919 -28.13433394081266
ltibia 36.38090585040298
lfoot 12.506848947041401 -13.20792191088869
ltoes -8.972952861950201
rfemur -36.07556982133081 2.1872168540147126 24.111127253740026
rtibia 31.63085860022157
rfoot 0.6265744361336933 -3.187109476896088
rtoes -9.655440604195968
lowerback 13.230153558154788 -1.0800751612270378 -2.368606516987832
upperback -1.897175055233335 -2.30741492662158 1.4400661849676446
thorax -8.980633962342734 -0.8217533549698778 3.46615875212853
lowerneck -20.031057444827244 -3.187096824793283 -2.6290683461886477
upperneck 13.425563711764354 -4.465562727016607 5.274732471209812
head 7.371383805805113 -2.0170942153488136 1.6859475798579902
lclavicle 2.980151552650587e-15 1.1900897868846005e-16
lhumerus -39.962949381916516 -14.432946212599706 93.40766367004437
lradius 120.71356536722476
lwrist 34.69175472220479
lhand -20.10279245776339 1.4078876278179597
lfingers 7.125019999999999
lthumb 6.105904525750233 31.14878714115878
rclavicle 2.9801381671867933e-15 1.1900166250708874e-16
rhumerus -65.07525866437486 4.132864402665184 -93.99016985881057
rradius 106.71437331342003
rwrist -14.868615215521173
rhand -15.93241852428502 39.04717174125
rfingers 7.125019999999999
rthumb 10.263513953430703 9.16134618778145
37
root 0.4025777392457229 18.371700630316646 0.3233204810761725 3.724231962237417 -5.207352577189988 0.854411098897558
lfemur 5.603630259367915 -1.9869972131633613 -27.984847950120567
ltibia 43.23620892334723
lfoot 12.480894275892394 -12.965043932042564
ltoes -7.140090080488502
rfemur -33.81978028205333 2.3716010676421373 24.33278935881471
rtibia 29.574388139447404
rfoot 1.1656376488805256 -3.6957596999881597
rtoes -8.659058476154136
lowerback 13.62122376346987 -1.0509303945758988 -2.1187205541688074
upperback -1.600866010661968 -2.218102252299387 1.4940674625596042
thorax -8.925782290924003 -0.8378555407984428 3.241692500364073
lowerneck -20.09273400779432 -3.211803547476356 -2.670873682169338
upperneck 13.096561236626215 -4.519608457014409 5.187623736149141
head 7.317021161368924 -2.0262380803447737 1.6588972798057164
lclavicle 2.980151552642002e-15 1.1900897868376763e-16
lhumerus -40.53851226988462 -14.624270221334363 93.77557614208534
lradius 118.5442073845718
lwrist 34.684833603592644
lhand -20.050198977913652 1.6404070287738257
lfingers 7.125019999999999
lthumb 6.135901770973804 31.19086998588043
rclavicle 2.98013816717646e-15 1.1900166250144076e-16
rhumerus -63.83597403716716 3.5700670040361473 -93.84502930900202
rradius 106.09328280482814
rwrist -14.841193050314944
rhand -16.183718631166663 39.20933793294569
rfingers 7.125019999999999
rthumb 9.970495279910114 9.23348532972247
38
root 0.410405557326297 18.287234550036917 1.7279441514402638 3.2107361487971344 -5.278113392081106 0.6502555903066201
lfemur 3.384467065121143 -1.2084953999676284 -26.96941711385078
ltibia 50.81114448233645
lfoot 11.299709611072883 -12.966554754727436
ltoes -2.6617781098224977
rfemur -32.702953756409514 2.5624639225939156 24.72470705645683
rtibia 30.26166886017183
rfoot 2.1858081031233723 -3.9847322818589053
rtoes -7.2789699174199605
lowerback 14.105274787059578 -0.9081608109705702 -1.7864108033978625
upperback -1.236383417435125 -1.916210559405744 1.5683388370409321
thorax -8.8771543943189 -0.7062893905205593 2.993921815171752
lowerneck -20.007067984599008 -3.2149252236079056 -2.715878645209333
upperneck 12.767511883197871 -4.584518763859802 5.042836592018987
head 7.284414134565314 -1.9931434341612437 1.6336639119412413
lclavicle 2.9801515526443716e-15 1.19008978685063e-16
lhumerus -41.32103052985774 -14.55856910995469 94.12927422316835
lradius 115.7170164838488
lwrist 34.62791307056271
lhand -20.154665544544162 1.57461597335976
lfingers 7.125019999999999
lthumb 6.132007794915328 31.229017117871784
rclavicle 2.9801381671489146e-15 1.1900166248638503e-16
rhumerus -62.51381281117433 3.278563306678471 -93.7891084694185
rradius 105.51507867384815
rwrist -14.947850404765289
rhand -16.232737365520833 39.41211000534323
rfingers 7.125019999999999
rthumb 9.997389950112936 9.37392296007616
39
root 0.41825018029748573 18.14807838915416 3.0018160868255084 2.5258818484092203 -5.722512198429171 0.3080020655808968
lfemur 0.1591654938682172 -0.11515740337120084 -25.846423039545726
ltibia 58.825231279343164
lfoot 10.843121353644293 -12.295774465358889
ltoes 0.5030062909168427
rfemur -30.994231827236916 2.721819746821056 25.475840411742922
rtibia 33.20328504307378
rfoot 2.5729214698933176 -3.8755649234344522
rtoes -5.447265710475687
lowerback 14.676401177872112 -0.6008586991728858 -1.3616848052955026
upperback -0.8687870509149804 -1.3927292623428964 1.6242449659169331
thorax -8.937271301504403 -0.5021379809415049 2.738067463844344
lowerneck -20.009373731235264 -3.2907769541346794 -2.738341944392714
upperneck 12.533288365554682 -4.624654971484409 4.867235597771286
head 7.2706945351909935 -1.9511506595458092 1.6050294895485187
lclavicle 2.980151552648099e-15 1.1900897868710012e-16
lhumerus -42.465970552703226 -14.380131005368403 94.49928394683774
lradius 113.02297342971313
lwrist 34.48967114632485
lhand -20.107350723742538 1.871737628833433
lfingers 7.125019999999999
lthumb 6.088682953301198 31.257552956326528
rclavicle 2.9801381671370324e-15 1.190016624798906e-16
rhumerus -60.82887782511875 3.2665011838367004 -93.80789960468948
rradius 105.18639891073282
rwrist -15.10990784621825
rhand -16.373898458729407 39.49871491605816
rfingers 7.125019999999999
rthumb 9.798348127136006 9.428127472399217
